<svg xmlns="http://www.w3.org/2000/svg" width="64" height="64" viewBox="0 0 64 64" fill="none">
  <defs>
    <linearGradient id="bg" x1="12" y1="10" x2="54" y2="56" gradientUnits="userSpaceOnUse">
      <stop stop-color="#0F766E" />
      <stop offset="0.58" stop-color="#134E4A" />
      <stop offset="1" stop-color="#F97316" />
    </linearGradient>
    <linearGradient id="shine" x1="18" y1="14" x2="38" y2="34" gradientUnits="userSpaceOnUse">
      <stop stop-color="white" stop-opacity="0.32" />
      <stop offset="1" stop-color="white" stop-opacity="0" />
    </linearGradient>
  </defs>
  <rect x="4" y="4" width="56" height="56" rx="16" fill="url(#bg)" />
  <rect x="8" y="8" width="48" height="48" rx="13" fill="url(#shine)" />
  <path
    d="M20 19H29.5C31.9853 19 34 21.0147 34 23.5V24C34 26.4853 31.9853 28.5 29.5 28.5H24.5V33H20V19Z"
    fill="white"
  />
  <path
    d="M20 35.5C20 33.0147 22.0147 31 24.5 31H31.5C33.9853 31 36 33.0147 36 35.5V40.5C36 42.9853 33.9853 45 31.5 45H24.5C22.0147 45 20 42.9853 20 40.5V35.5Z"
    fill="white"
    fill-opacity="0.92"
  />
  <path
    d="M39 19H43V45H39V28.4H35.2V24.9H39V19Z"
    fill="white"
  />
  <circle cx="47.5" cy="42.5" r="4.5" fill="white" fill-opacity="0.92" />
</svg>
